<?xml version="1.0" encoding="utf-8"?>
<!-- Generator: Adobe Illustrator 15.1.0, SVG Export Plug-In . SVG Version: 6.00 Build 0)  -->
<!DOCTYPE svg PUBLIC "-//W3C//DTD SVG 1.1//EN" "http://www.w3.org/Graphics/SVG/1.1/DTD/svg11.dtd">
<svg version="1.1" id="Ebene_1" xmlns="http://www.w3.org/2000/svg" xmlns:xlink="http://www.w3.org/1999/xlink" x="0px" y="0px"
	 width="708.664px" height="708.664px" viewBox="0 0 708.664 708.664" enable-background="new 0 0 708.664 708.664"
	 xml:space="preserve">
<g>
	<defs>
		<rect id="SVGID_1_" x="171.571" y="162.617" width="367.289" height="382.593"/>
	</defs>
	<clipPath id="SVGID_2_">
		<use xlink:href="#SVGID_1_"  overflow="visible"/>
	</clipPath>
	<path clip-path="url(#SVGID_2_)" fill="#0087C1" d="M348.916,162.617c7.978,4.427,35.122,22.431,35.122,54.923
		c0,28.745-46.37,114.56-28.43,136.857l115.109-143.468c0,0,28.59,34.823,11.438,64.277c-17.823,30.609-61.881,66.524-79.531,93.209
		c-10.911,16.495-5.606,25.338-5.606,25.338l139.495-76.4c0,0,11.202,33.237-15.347,57.141
		c-28.018,25.229-93.991,35.249-93.991,61.543h95.809c0,0-9.792,29.033-28.305,33.118c-16.329,3.605-51.27-5.934-67.737,8.899
		c-17.384,15.66-36.938,67.155-95.279,67.155c-39.252,0-69.671-28.289-88.566-65.463c-21.834-42.956-46.3-63.631-71.526-68.897
		c0,0,13.714-32.469,49.922-32.469c49.774,0,71.065,81.557,108.623,81.557c10.825,0,22.317-5.632,22.317-21.582
		c0-17.314-24.958-31.656-31.905-36.492c-16.543-11.519-29.733-29.818-21.233-60.532L348.916,162.617"/>
</g>
</svg>
